<svg width="60" height="60" viewBox="0 0 90 90" fill="none" xmlns="http://www.w3.org/2000/svg">
<g clip-path="url(#clip0_9_27)">
<path d="M61.7391 12.678C61.7391 13.6962 61.76 14.6724 61.7338 15.6486C61.6868 17.4519 60.3785 18.7946 58.6673 18.8312C57.0032 18.8679 55.5798 17.5226 55.4778 15.7481C55.4202 14.7405 55.4673 13.7276 55.4673 12.6362H26.1598C26.1598 13.5339 26.1651 14.4709 26.1598 15.4079C26.1441 17.397 24.828 18.8286 23.02 18.8286C21.2225 18.8286 19.8985 17.3865 19.8828 15.4026C19.875 14.4944 19.8828 13.5836 19.8828 12.5891C16.3872 12.5577 12.9203 12.1022 9.96626 14.4866C7.73176 16.2899 6.42351 18.58 6.32408 21.4668C6.2482 23.7229 6.28745 25.9816 6.28745 28.2377C6.28745 42.7321 6.28222 57.2239 6.28745 71.7184C6.28745 76.3274 8.71818 79.8947 12.813 81.151C13.9486 81.4991 15.1888 81.6326 16.3819 81.6404C24.3963 81.6823 32.4107 81.6745 40.425 81.6509C41.9138 81.6457 43.0415 82.1561 43.6773 83.538C44.4544 85.2261 43.5046 87.2807 41.715 87.7779C41.2806 87.8983 40.8123 87.935 40.357 87.9376C32.1778 87.9454 24.0012 87.9716 15.822 87.9376C8.55334 87.9036 2.42025 83.2658 0.575614 76.3771C0.198837 74.9743 0.0287637 73.4772 0.0261472 72.022C-0.00525092 55.3971 -0.0104839 38.7774 0.0182976 22.1578C0.0339967 13.0942 6.86046 6.3207 15.9371 6.27621C17.2061 6.27097 18.4778 6.27621 19.8854 6.27621C19.8854 5.26594 19.8802 4.32896 19.8854 3.3946C19.8985 1.37407 21.1701 0 23.02 0C24.8594 0 26.1467 1.38453 26.1624 3.39198C26.1703 4.30541 26.1624 5.21883 26.1624 6.20293H55.4673C55.4673 5.15602 55.4281 4.1222 55.4752 3.09361C55.5537 1.42641 56.7075 0.17274 58.2277 0.0209381C59.8055 -0.136098 61.255 0.753773 61.6056 2.24038C61.7809 2.98892 61.7129 3.79766 61.7391 4.58022C61.7548 5.09582 61.7417 5.61404 61.7417 6.27621C63.097 6.27621 64.3608 6.29453 65.6246 6.27359C68.3981 6.22648 71.0329 6.79705 73.4375 8.17373C78.6862 11.1784 81.444 15.7507 81.6402 21.7835C81.7527 25.2488 81.6821 28.7193 81.6585 32.1872C81.6455 34.1868 80.298 35.5896 78.4847 35.5765C76.6715 35.5634 75.3972 34.1606 75.3894 32.1322C75.3763 28.8266 75.4129 25.5236 75.3789 22.218C75.3292 17.3263 72.2103 13.4397 67.5451 12.7252C65.6979 12.4425 63.7695 12.678 61.7391 12.678Z" fill="#004875"/>
<path d="M72.6212 66.9995C73.605 67.1879 74.6045 67.3162 75.5726 67.5727C82.2237 69.3315 86.8811 73.4066 89.4087 79.7979C91.4548 84.9697 87.9958 89.9425 82.4357 89.9608C74.717 89.9843 66.9957 90.0053 59.2744 90C55.3731 89.9974 52.4034 87.6183 51.7336 84.0248C51.2809 81.5829 52.1548 79.4315 53.3297 77.3979C56.6971 71.5666 61.692 68.0935 68.3981 67.1513C68.6153 67.1199 68.8298 67.0571 69.0627 66.9445C65.5383 66.285 62.6732 64.5759 60.5983 61.6655C58.4973 58.7132 57.8693 55.4155 58.5522 51.8717C59.7192 45.8179 65.4519 41.4811 71.7315 41.8816C78.074 42.2873 83.0532 47.4642 83.4064 54.0126C83.7413 60.2155 79.1598 65.6935 72.6185 67.0021L72.6212 66.9995ZM70.8184 83.7238C70.8184 83.7108 70.8184 83.695 70.8184 83.682C74.5783 83.682 78.3408 83.682 82.1008 83.682C83.6811 83.682 84.0317 83.1507 83.4273 81.685C81.3472 76.6337 76.3758 73.294 70.9126 73.2731C65.3944 73.2521 60.3157 76.6232 58.199 81.7138C57.5998 83.1533 57.9713 83.7212 59.536 83.7238C63.2959 83.7291 67.0585 83.7238 70.8184 83.7238ZM64.5885 54.4706C64.612 57.9542 67.4379 60.7338 70.9204 60.7023C74.3297 60.6709 77.132 57.8391 77.132 54.4209C77.132 50.9635 74.2853 48.1316 70.821 48.1421C67.3489 48.1526 64.5649 50.9792 64.5885 54.4706Z" fill="#004875"/>
<path d="M30.43 50.2594C33.9283 50.2594 37.4239 50.2384 40.9222 50.2698C42.3142 50.2829 43.4576 51.2094 43.8265 52.4893C44.2164 53.8319 43.7245 55.2584 42.513 55.9833C42.029 56.2739 41.4167 56.5016 40.862 56.5042C33.8681 56.5382 26.8742 56.5487 19.8802 56.5146C18.2318 56.5068 16.9733 55.3133 16.7666 53.7875C16.5703 52.3218 17.4573 50.8692 18.8833 50.4243C19.3386 50.2829 19.8462 50.262 20.3303 50.2594C23.6977 50.2463 27.0625 50.2515 30.43 50.2515V50.2594Z" fill="#004875"/>
<path d="M26.3508 39.746C24.2602 39.746 22.1696 39.7617 20.0791 39.7408C18.1428 39.7225 16.7561 38.4165 16.743 36.6472C16.7299 34.8596 18.0879 33.4934 20.0215 33.4777C24.2681 33.4463 28.5147 33.4436 32.7613 33.4777C34.6844 33.4934 36.0214 34.8831 35.99 36.6891C35.9613 38.4426 34.6164 39.7199 32.722 39.7408C30.6 39.7643 28.4754 39.746 26.3534 39.746H26.3508Z" fill="#004875"/>
</g>
<defs>
<clipPath id="clip0_9_27">
<rect width="90" height="90" fill="white"/>
</clipPath>
</defs>
</svg>
