<svg width="60" height="60" viewBox="0 0 91 90" fill="none" xmlns="http://www.w3.org/2000/svg">
<g clip-path="url(#clip0_7_494)">
<path d="M13.1941 77.3589C11.7513 77.2121 10.3979 77.2121 9.11085 76.9187C3.98572 75.7475 0.58684 71.4565 0.548536 66.0252C0.492356 57.9503 0.477035 49.8729 0.553643 41.7954C0.61493 35.3602 5.32126 30.714 11.7079 30.6677C17.3259 30.6265 22.9464 30.66 28.5644 30.66C28.9423 30.66 29.3202 30.66 29.8029 30.66C29.8284 30.2172 29.8667 29.8491 29.8667 29.4785C29.8718 23.4937 29.854 17.509 29.8744 11.5243C29.8923 6.26546 32.6783 2.17525 37.3974 0.605065C38.5286 0.22925 39.7697 0.0361947 40.9622 0.0336206C53.7636 -0.00756463 66.5674 -0.00756463 79.3688 0.0156021C85.6175 0.0258984 90.4234 4.82398 90.4643 11.1279C90.5128 19.2362 90.5128 27.3446 90.4643 35.4529C90.4285 41.762 85.6532 46.5008 79.379 46.5729C78.9066 46.5781 78.4341 46.5729 77.8672 46.5729C77.8443 46.9951 77.8111 47.3374 77.8111 47.6772C77.8059 49.7056 77.8059 51.7314 77.8085 53.7597C77.8085 56.133 76.8866 57.9735 74.6522 58.9079C72.4663 59.8217 70.5511 59.2271 68.8708 57.608C66.6083 55.4303 64.3126 53.2887 62.0296 51.1316C61.8049 50.918 61.5649 50.7197 61.141 50.3465C61.141 50.8896 61.141 51.2217 61.141 51.5538C61.141 56.3493 61.164 61.1422 61.1333 65.9377C61.0976 71.3999 57.7191 75.7269 52.5608 76.9264C51.7002 77.1272 50.7937 77.207 49.9076 77.2121C44.831 77.2379 39.7544 77.207 34.6803 77.2507C34.1747 77.2559 33.5593 77.503 33.189 77.8479C29.4377 81.341 25.7375 84.8932 21.999 88.3991C20.0633 90.2164 17.6527 90.4944 15.5919 89.1842C13.9014 88.1082 13.1966 86.4943 13.1966 84.5251C13.1966 82.1441 13.1966 79.7656 13.1966 77.3563L13.1941 77.3589ZM72.2876 53.1728C72.2876 52.6066 72.2876 52.3002 72.2876 51.9939C72.2876 49.389 72.2774 46.7814 72.2901 44.1764C72.3003 42.094 73.3397 41.0464 75.4183 41.0129C76.6951 40.9923 77.9719 41.0206 79.2487 41.0052C82.6808 40.964 84.9382 38.6885 84.9433 35.229C84.9561 27.2828 84.9561 19.334 84.9433 11.3879C84.9382 7.88455 82.6502 5.5962 79.1721 5.5962C66.4985 5.59105 53.8248 5.59363 41.1512 5.59877C40.6762 5.59877 40.1859 5.6065 39.7237 5.70688C37.0603 6.28863 35.3928 8.46887 35.3928 11.4007C35.3902 19.2517 35.4081 27.1026 35.4081 34.9535C35.4081 38.7966 37.5736 41.0026 41.3912 41.0052C46.8177 41.0103 52.2467 41.0206 57.6732 40.9949C58.8631 40.9897 59.8156 41.3681 60.6813 42.1996C64.0087 45.3966 67.3744 48.5524 70.7273 51.7211C71.1818 52.1509 71.6441 52.5731 72.2876 53.1703V53.1728ZM18.7176 83.8249C19.1389 83.4491 19.3815 83.2458 19.6114 83.027C23.1251 79.7038 26.6594 76.4013 30.1349 73.037C31.1461 72.0588 32.2161 71.6058 33.6333 71.6212C38.9959 71.6779 44.3586 71.6444 49.7186 71.6444C53.3652 71.6444 55.6149 69.3792 55.6175 65.6803C55.6251 59.6647 55.62 53.6491 55.6175 47.6334C55.6175 47.2962 55.5843 46.959 55.5664 46.6141C55.2217 46.5987 54.9995 46.5781 54.7773 46.5781C49.9893 46.5703 45.2012 46.6295 40.4157 46.542C35.1297 46.4442 30.6737 42.3231 30.0123 37.0179C29.9357 36.3924 29.7365 36.2123 29.1364 36.2148C23.263 36.2329 17.3897 36.1917 11.5189 36.2431C8.31922 36.2715 6.10012 38.619 6.06692 41.8598C6.04649 43.7569 6.06182 45.6565 6.06182 47.5536C6.06182 53.698 6.04649 59.8423 6.06692 65.9866C6.07714 69.3072 8.41115 71.629 11.6823 71.6444C12.8621 71.6496 14.0445 71.6444 15.2242 71.6444C17.7421 71.6444 18.7125 72.6097 18.7125 75.1168C18.7125 77.9406 18.7125 80.7618 18.7125 83.8249H18.7176Z" fill="#004875"/>
<path d="M18.1328 17.5706C19.0572 17.5706 19.9816 17.5449 20.9035 17.5757C22.4357 17.6272 23.5873 18.7521 23.6537 20.227C23.7201 21.6737 22.6425 23.0199 21.1308 23.0971C19.1313 23.2001 17.1165 23.2001 15.117 23.0971C13.6103 23.0173 12.5072 21.6351 12.6016 20.2219C12.7012 18.7161 13.8248 17.6272 15.3647 17.5783C16.2865 17.55 17.2109 17.5732 18.1354 17.5732L18.1328 17.5706Z" fill="#004875"/>
<path d="M73.3677 73.2427C72.4433 73.2427 71.5164 73.2736 70.5919 73.235C69.0317 73.1707 67.926 72.0406 67.9004 70.5425C67.8749 69.0213 68.9117 67.8037 70.4668 67.7445C72.4408 67.6699 74.4249 67.6699 76.3989 67.7522C77.9004 67.814 78.9244 69.0316 78.9066 70.5091C78.8912 71.9789 77.8238 73.1398 76.3351 73.2247C75.3494 73.2788 74.356 73.235 73.3677 73.235C73.3677 73.235 73.3677 73.2402 73.3677 73.2427Z" fill="#004875"/>
<path d="M60.1093 20.3275C56.5061 20.3275 52.903 20.3404 49.2998 20.3223C47.691 20.3146 46.6083 19.3931 46.4065 17.9465C46.192 16.4072 47.1828 15.0609 48.7125 14.8318C49.0265 14.7855 49.3483 14.7701 49.665 14.7701C56.6798 14.7675 63.6971 14.7649 70.7119 14.7701C72.3514 14.7701 73.3473 15.3647 73.7993 16.559C74.5066 18.4304 73.2043 20.2966 71.1129 20.3146C67.4459 20.3481 63.7788 20.3249 60.1118 20.3275H60.1093Z" fill="#004875"/>
<path d="M60.1604 31.4811C56.5878 31.4811 53.0153 31.4862 49.4428 31.4811C47.6374 31.4785 46.4065 30.3794 46.3657 28.7603C46.3248 27.1155 47.5812 25.9082 49.4198 25.9056C56.5955 25.8928 63.7738 25.8928 70.9494 25.9056C72.7293 25.9082 73.9883 27.0949 73.9959 28.6882C74.0036 30.3228 72.7217 31.4785 70.8754 31.4811C67.3029 31.4862 63.7303 31.4811 60.1578 31.4811H60.1604Z" fill="#004875"/>
<path d="M20.8754 50.9976C22.4229 50.9924 23.6844 52.2614 23.6665 53.8033C23.6486 55.2705 22.3769 56.537 20.8984 56.5602C19.4632 56.5833 18.1353 55.286 18.1047 53.8265C18.0741 52.2846 19.3279 51.0027 20.8728 50.9976H20.8754Z" fill="#004875"/>
<path d="M31.9351 56.5604C30.3723 56.5346 29.1721 55.263 29.2206 53.6774C29.2666 52.1124 30.4745 50.954 32.0168 50.9978C33.5158 51.039 34.7671 52.3312 34.7416 53.8061C34.716 55.2527 33.3601 56.5835 31.9351 56.5578V56.5604Z" fill="#004875"/>
<path d="M45.712 53.7701C45.712 55.3197 44.5373 56.5346 43.0102 56.5604C41.5802 56.5835 40.2319 55.2682 40.1987 53.8164C40.1655 52.3028 41.4627 51.0004 43.0077 51.0029C44.5501 51.0029 45.7069 52.1896 45.7094 53.7701H45.712Z" fill="#004875"/>
</g>
<defs>
<clipPath id="clip0_7_494">
<rect width="90" height="90" fill="white" transform="translate(0.5)"/>
</clipPath>
</defs>
</svg>
