<svg width="197" height="80" viewBox="0 0 267 127" fill="none" xmlns="http://www.w3.org/2000/svg">
<path d="M233.202 112.395V67.6709H242.314V95.1983L255.211 80.6325H266.569L252.58 96.3532L266.312 112.395H254.955L242.314 98.7274V112.395H233.202Z" fill="#02578C"/>
<path d="M218.144 69.6607C218.144 66.1316 221.032 63.8857 224.112 63.8857C227.192 63.8857 229.823 66.1316 229.823 69.6607C229.823 73.1257 227.192 75.4998 224.112 75.4998C220.968 75.4998 218.144 73.1899 218.144 69.6607ZM219.492 112.46V80.6973H228.668V112.46H219.492Z" fill="#02578C"/>
<path d="M206.269 66.708H215.445V112.394H206.269V66.708Z" fill="#02578C"/>
<path d="M201.971 112.331H192.731V106.428C190.678 110.727 186.25 113.101 181.374 113.101C175.406 113.101 169.631 108.417 169.631 98.7919V80.6328H179.192V98.8561C179.192 103.219 181.951 105.144 185.352 105.144C189.074 105.144 192.731 102.706 192.731 98.0219V80.6328H201.971V112.331Z" fill="#02578C"/>
<path d="M165.356 112.395H156.052V105.914C154.897 109.444 150.662 113.101 145.657 113.101C136.931 113.101 130.322 106.171 130.322 96.9311C130.322 87.8837 136.417 79.9912 145.208 79.9912C150.021 79.9912 153.742 82.4295 155.86 87.1137V80.6329H165.356V112.395ZM139.946 96.5461C139.946 101.038 143.026 104.888 147.903 104.888C152.844 104.888 155.924 101.038 155.924 96.5461C155.924 92.0545 152.908 88.2687 147.903 88.2687C142.962 88.2687 139.946 92.0545 139.946 96.5461Z" fill="#02578C"/>
<path d="M109.074 80.6329H118.186V85.3813C120.111 81.6596 123.447 79.9913 126.784 79.9271H127.361C128.709 79.863 130.185 80.1838 131.468 80.6329V89.1671C129.928 88.5254 128.067 88.1404 126.142 88.1404C121.971 88.1404 118.25 90.0654 118.25 94.8137V112.395H109.074V80.6329Z" fill="#02578C"/>
<path d="M104.286 112.394H94.9817V105.914C93.8267 109.443 89.5917 113.1 84.5867 113.1C75.8601 113.1 69.251 106.17 69.251 96.9304C69.251 87.8829 75.3468 79.9904 84.1376 79.9904C88.95 79.9904 92.6717 82.4288 94.7892 87.1129V66.708H104.286V112.394ZM78.8759 96.5454C78.8759 101.037 81.9559 104.887 86.8326 104.887C91.7734 104.887 94.8533 101.037 94.8533 96.5454C94.8533 92.0537 91.8375 88.2679 86.8326 88.2679C81.8918 88.2679 78.8759 92.0537 78.8759 96.5454Z" fill="#02578C"/>
<path d="M44.9397 112.395L35.4431 80.6328H45.0681L52.5114 106.556L61.4305 80.6328H70.8629L55.463 126.897H46.4797L51.0355 112.395H44.9397Z" fill="#02578C"/>
<path d="M12.6416 112.394H3.08081V66.708H12.6416V86.8562C15.4007 81.0171 20.6624 79.9904 23.0365 79.9904C33.4956 79.9904 35.6131 87.7546 35.6131 94.5562V112.394H26.0524V95.9037C26.0524 91.2837 24.2557 88.4604 20.0207 88.4604C14.8874 88.4604 12.6416 92.6312 12.6416 96.6095V112.394Z" fill="#02578C"/>
<path d="M126.247 30.627C126.247 22.2854 132.15 13.8154 143.7 13.8154C155.25 13.8154 161.154 22.2854 161.154 30.627C161.154 40.252 153.389 46.9253 143.7 46.9253C134.075 46.9253 126.247 40.252 126.247 30.627ZM143.7 38.5195C148.769 38.5195 151.914 34.9262 151.914 30.4345C151.914 25.8787 148.769 22.2212 143.7 22.2212C138.631 22.2212 135.487 25.8145 135.487 30.3703C135.487 34.9262 138.631 38.5195 143.7 38.5195Z" fill="#FED33B"/>
<path d="M99.1884 46.348H90.2693V0.533203H99.4451V20.8739C101.113 17.3448 104.771 13.8156 110.546 13.8156C119.272 13.8156 125.112 21.7081 125.112 30.5631C125.112 39.8672 118.759 47.0538 109.968 47.0538C104.899 47.0538 101.434 44.4871 99.1884 41.1505V46.348ZM107.915 38.9047C112.728 38.9047 115.872 35.0547 115.872 30.4989C115.872 25.9431 112.728 22.0931 107.594 22.0931C102.461 22.0931 99.3809 26.0072 99.3809 30.4989C99.3809 35.5039 103.295 38.9047 107.915 38.9047Z" fill="#FED33B"/>
<path d="M66.2881 14.5216H75.3997V19.2699C77.3247 15.5483 80.6613 13.88 83.998 13.8158H84.5755C85.923 13.7516 87.3988 14.0725 88.6821 14.5216V23.0557C87.1422 22.4141 85.2813 22.0291 83.3563 22.0291C79.1855 22.0291 75.4639 23.9541 75.4639 28.7024V46.284H66.2881V14.5216Z" fill="#FED33B"/>
<path d="M61.1562 46.2197H51.9163V40.3164C49.863 44.6155 45.4355 46.9897 40.5588 46.9897C34.5914 46.9897 28.8164 42.3055 28.8164 32.6806V14.5215H38.3772V32.7447C38.3772 37.108 41.1363 39.033 44.5372 39.033C48.2588 39.033 51.9163 36.5947 51.9163 31.9106V14.5215H61.1562V46.2197Z" fill="#FED33B"/>
<path d="M0.0649414 14.5209H6.73824V6.69262L15.7215 5.2168V14.5209H25.3465V22.67H16.1707V38.1983H26.9506V46.2833H16.1065C10.2674 46.2833 6.67408 43.1391 6.67408 37.1075V22.67H0.0649414V14.5209Z" fill="#FED33B"/>
</svg>
