<svg width="48" height="48" viewBox="0 0 48 48" fill="none" xmlns="http://www.w3.org/2000/svg">
<g clip-path="url(#clip0_72_980)">
<path d="M16.7211 1.85455C11.9252 3.48364 7.78914 6.57572 4.92057 10.6766C2.052 14.7775 0.602075 19.671 0.783766 24.6384C0.965457 29.6058 2.76919 34.3852 5.93002 38.2747C9.09085 42.1641 13.4422 44.9585 18.3449 46.2475C22.3196 47.2518 26.4839 47.2959 30.4799 46.376C34.0998 45.5799 37.4465 43.8768 40.1924 41.4337C43.0502 38.8132 45.1245 35.4797 46.1924 31.7913C47.3531 27.7804 47.5596 23.5624 46.7961 19.4612H24.4761V28.527H37.4024C37.144 29.973 36.5904 31.353 35.7747 32.5846C34.9589 33.8161 33.8978 34.8739 32.6549 35.6945C31.0764 36.7169 29.2971 37.4048 27.4311 37.7141C25.5596 38.0548 23.6401 38.0548 21.7686 37.7141C19.8718 37.3301 18.0775 36.5635 16.4999 35.4632C13.9654 33.7065 12.0624 31.2109 11.0624 28.3324C10.0454 25.4001 10.0454 22.221 11.0624 19.2886C11.7742 17.2332 12.951 15.3617 14.5049 13.8138C16.2831 12.01 18.5344 10.7206 21.0117 10.0872C23.489 9.45369 26.0967 9.5006 28.5486 10.2227C30.464 10.7985 32.2155 11.8044 33.6636 13.1602C35.1211 11.7405 36.5761 10.317 38.0286 8.88986C38.7786 8.12244 39.5961 7.39173 40.3349 6.60595C38.1245 4.59184 35.5299 3.02461 32.6999 1.99408C27.5462 0.161774 21.9073 0.112532 16.7211 1.85455Z" fill="white"/>
<path d="M16.7214 1.85438C21.9071 0.11118 27.5461 0.159125 32.7002 1.99024C35.5307 3.02777 38.1241 4.60255 40.3314 6.62414C39.5814 7.40992 38.7902 8.1443 38.0252 8.90805C36.5702 10.3303 35.1164 11.7476 33.6639 13.1601C32.2158 11.8042 30.4643 10.7983 28.5489 10.2226C26.0978 9.4979 23.4902 9.44828 21.0122 10.0792C18.5342 10.71 16.2816 11.9971 14.5014 13.799C12.9475 15.3468 11.7708 17.2183 11.0589 19.2738L3.28516 13.3804C6.06769 7.97745 10.8855 3.84462 16.7214 1.85438Z" fill="#E33629"/>
<path d="M1.22231 19.2191C1.64014 17.1915 2.33383 15.2279 3.28481 13.3809L11.0586 19.2889C10.0416 22.2213 10.0416 25.4004 11.0586 28.3327C8.46856 30.2911 5.87731 32.2592 3.28481 34.2371C0.904128 29.597 0.178061 24.3102 1.22231 19.2191Z" fill="#F8BD00"/>
<path d="M24.4763 19.457H46.7963C47.5598 23.5583 47.3532 27.7763 46.1925 31.7872C45.1247 35.4755 43.0503 38.8091 40.1925 41.4295C37.6838 39.5128 35.1638 37.6108 32.655 35.6941C33.8988 34.8726 34.9604 33.8137 35.7762 32.5808C36.592 31.3479 37.1451 29.9665 37.4025 28.5192H24.4763C24.4725 25.5009 24.4763 22.479 24.4763 19.457Z" fill="#587DBD"/>
<path d="M3.28125 34.2364C5.87375 32.2781 8.465 30.3099 11.055 28.332C12.057 31.2115 13.9628 33.7073 16.5 35.4628C18.0825 36.558 19.8807 37.3183 21.78 37.6953C23.6515 38.036 25.571 38.036 27.4425 37.6953C29.3085 37.386 31.0878 36.6981 32.6663 35.6758C35.175 37.5925 37.695 39.4945 40.2038 41.4113C37.4583 43.8557 34.1116 45.56 30.4912 46.3573C26.4953 47.2771 22.331 47.233 18.3563 46.2287C15.2126 45.4069 12.2763 43.958 9.73125 41.973C7.03748 39.8789 4.83733 37.2399 3.28125 34.2364Z" fill="#319F43"/>
</g>
<defs>
<clipPath id="clip0_72_980">
<rect width="48" height="47" fill="white" transform="translate(0 0.308594)"/>
</clipPath>
</defs>
</svg>
