<svg width="60" height="60" viewBox="0 0 91 90" fill="none" xmlns="http://www.w3.org/2000/svg">
<path d="M58.3776 58.2788C58.3776 51.3549 58.3669 44.431 58.3936 37.5071C58.3963 36.7898 58.1768 36.375 57.585 35.9628C44.856 27.0878 46.1305 7.66503 59.8984 0.489547C62.3189 -0.773724 64.7849 0.690278 64.801 3.43093C64.8224 7.71321 64.8224 11.9928 64.7903 16.2751C64.7849 16.9121 64.9616 17.2573 65.5801 17.4366C66.1237 17.5946 66.6993 17.7605 67.1572 18.071C69.7598 19.8481 71.8991 17.9826 74.159 17.1904C74.3437 17.1262 74.4347 16.5668 74.4374 16.2349C74.4562 12.0865 74.4481 7.9407 74.4508 3.79225C74.4508 0.518988 76.8633 -0.88881 79.7389 0.698308C93.1721 8.12002 94.2485 27.0584 81.723 35.9254C81.0563 36.3964 80.8635 36.8782 80.8635 37.6436C80.8823 51.2238 80.8849 64.8039 80.8742 78.3868C80.8689 83.844 77.4978 88.2922 72.4319 89.5822C65.3525 91.3862 58.5248 86.1698 58.3802 78.8498C58.3802 78.7508 58.3776 78.6491 58.3776 78.55C58.3776 71.7921 58.3776 65.0368 58.3776 58.2788ZM58.3776 9.91055C57.9947 10.4084 57.7832 10.6546 57.6011 10.9222C52.9315 17.9077 55.1752 27.4063 62.5197 31.4879C64.145 32.3925 64.8304 33.5888 64.8251 35.4409C64.7849 49.5912 64.8037 63.7414 64.8037 77.8916C64.8037 78.2583 64.7929 78.6277 64.8144 78.9943C64.9563 81.4968 67.0608 83.5041 69.5643 83.5309C72.3489 83.5603 74.4428 81.3817 74.4455 78.4135C74.4508 64.0974 74.4669 49.7785 74.4267 35.4623C74.4214 33.6129 75.0881 32.4112 76.7187 31.5012C83.2438 27.8586 85.8598 19.9766 82.8529 13.1383C82.387 12.0784 81.7203 11.1096 81.1446 10.0979L80.8769 10.221C80.8769 13.1249 80.8608 16.0288 80.8822 18.9328C80.8956 20.6483 80.1218 21.7805 78.5367 22.4068C76.0814 23.3756 73.6234 24.3365 71.1842 25.3455C70.0891 25.7978 69.0636 25.7603 67.9846 25.3133C65.6069 24.3311 63.2105 23.3997 60.8222 22.4415C59.0336 21.7243 58.3802 20.7661 58.3776 18.8471C58.3722 15.9726 58.3776 13.1008 58.3776 9.91055Z" fill="#004875"/>
<path d="M20.7716 15.3653C19.1035 17.0247 17.5157 18.6011 15.8717 20.2364C17.3604 21.9761 18.8813 23.7425 20.3914 25.5224C21.7409 27.1095 21.8453 28.2978 20.7663 30.0883C19.2535 32.5988 18.1637 35.2779 17.4354 38.1122C16.9294 40.0767 16.0002 40.8368 13.9921 40.9921C11.6921 41.1687 9.38941 41.3561 7.01979 41.5434V48.4272C9.3787 48.6145 11.7376 48.8072 14.0965 48.9892C15.9601 49.1337 16.9481 49.9393 17.4113 51.77C18.145 54.6739 19.2695 57.4092 20.8171 59.9786C21.8266 61.654 21.7141 62.8879 20.4503 64.3786C18.9375 66.1638 17.4086 67.9383 15.9494 69.6431C17.5773 71.2624 19.1785 72.8549 20.8653 74.5303C22.5361 73.1011 24.3649 71.5568 26.1722 69.9857C26.9433 69.3166 27.8001 68.8911 28.8256 69.0597C29.3719 69.148 29.9395 69.33 30.4107 69.6137C33.0401 71.1928 35.8354 72.3437 38.8075 73.0931C40.5666 73.5373 41.3779 74.5811 41.5118 76.369C41.6858 78.7323 41.884 81.0929 42.0741 83.4936H48.8991C49.2419 82.1313 49.93 81.0501 51.408 80.6807C53.3813 80.1856 55.3172 81.6549 55.3707 83.6917C55.4511 86.8392 52.6557 89.8127 49.3623 89.9331C46.7892 90.0241 44.2054 90.0294 41.6296 89.9304C38.4942 89.8073 35.9158 87.1871 35.6667 84.0503C35.5463 82.5167 35.3883 80.9858 35.308 79.4496C35.2812 78.9196 35.0563 78.7216 34.5984 78.5449C32.8901 77.8758 31.1846 77.1933 29.5138 76.4332C28.9836 76.1923 28.6837 76.2726 28.2901 76.6259C27.2164 77.5814 26.116 78.5128 25.0128 79.4362C22.2175 81.7807 18.6403 81.6603 16.0377 79.115C14.458 77.5707 12.8943 76.0104 11.352 74.4286C8.81374 71.8271 8.70664 68.2407 11.0656 65.4599C12.0188 64.3358 13.0068 63.2438 13.9171 62.0903C14.1019 61.8548 14.1528 61.3596 14.043 61.0679C13.3709 59.3255 12.6132 57.6153 11.9331 55.8756C11.7483 55.4046 11.5234 55.2119 11.012 55.1824C9.5099 55.0995 8.01048 54.9496 6.50839 54.8372C3.17753 54.5883 0.580322 51.8878 0.526771 48.5503C0.489286 46.1763 0.489286 43.7996 0.526771 41.423C0.580322 38.0828 3.17753 35.385 6.50839 35.1361C8.01048 35.0236 9.5099 34.8684 11.012 34.7881C11.5261 34.7614 11.751 34.5713 11.9358 34.1003C12.6158 32.3606 13.3736 30.653 14.0456 28.908C14.1581 28.619 14.1072 28.1212 13.9225 27.8856C13.0094 26.7321 12.0188 25.6401 11.0682 24.516C8.68522 21.6977 8.8191 18.114 11.419 15.4751C12.9452 13.9254 14.4821 12.3865 16.0351 10.8636C18.6323 8.31832 22.2282 8.18985 25.0075 10.5344C26.132 11.4818 27.2566 12.4373 28.3571 13.4142C28.7373 13.7515 29.0345 13.7541 29.5057 13.5454C31.1819 12.7986 32.9009 12.1536 34.577 11.4069C34.8822 11.2704 35.2196 10.8556 35.2624 10.5317C35.4499 9.04095 35.5489 7.5368 35.6587 6.03533C35.9077 2.69248 38.5826 0.109735 41.9241 0.0294427C43.129 2.05683e-06 44.3339 -0.00267436 45.5388 0.0294427C47.3435 0.0749418 48.7278 1.49077 48.7278 3.23579C48.7278 4.9835 47.3435 6.38862 45.5361 6.43947C44.4035 6.47159 43.2709 6.44482 42.0768 6.44482C41.884 8.86163 41.6858 11.1901 41.5172 13.5213C41.3779 15.4349 40.5934 16.4359 38.7031 16.915C35.7979 17.651 33.0615 18.7724 30.4964 20.3274C28.8819 21.307 27.61 21.1999 26.1749 19.9848C24.3622 18.4512 22.5629 16.9016 20.7743 15.3734L20.7716 15.3653Z" fill="#004875"/>
<path d="M45.113 67.4724C34.2235 67.4724 24.413 58.6804 23.1653 47.8007C21.8587 36.4045 29.1201 25.4178 40.9816 22.9742C41.7956 22.8056 42.7381 22.811 43.5226 23.0519C44.8774 23.4694 45.6486 24.9254 45.4986 26.3144C45.3487 27.6928 44.3178 28.849 42.8773 29.1193C38.6843 29.9035 35.2624 31.9242 32.6625 35.3206C25.3127 44.9209 31.2354 59.2344 43.2281 60.8804C45.7316 61.223 48.1494 60.9553 50.5672 60.2648C51.3303 60.0453 52.238 59.9998 53.0037 60.1845C54.3291 60.5057 55.1485 61.777 55.1618 63.1206C55.1752 64.531 54.3184 65.7381 52.8966 66.2225C50.5056 67.0362 48.0503 67.4938 45.1157 67.4671L45.113 67.4724Z" fill="#004875"/>
</svg>
